<?xml version="1.0" encoding="UTF-8" standalone="no"?>
<!-- Created with Inkscape (http://www.inkscape.org/) -->

<svg
   version="1.1"
   id="svg1"
   width="25.279068"
   height="47.199375"
   viewBox="0 0 25.279067 47.199374"
   xmlns="http://www.w3.org/2000/svg"
   xmlns:svg="http://www.w3.org/2000/svg">
  <defs
     id="defs1" />
  <g
     id="g1"
     transform="translate(-611.45678,-57.402658)">
    <path
       id="path84"
       style="fill:#000000;stroke-width:1.02417"
       d="m 623.02431,72.545935 c -2.55782,0.009 -6.3304,1.638387 -7.89648,4.037109 -2.91532,4.465316 -3.59533,11.294785 -1.29297,12.986328 0.75692,0.556109 1.6468,1.010756 2.07226,1.070313 0.0139,0.928652 0.63249,1.986297 1.77344,2.607422 3.02932,1.64913 2.62925,1.931389 0.73047,3.537109 -2.36278,1.99814 -4.56503,1.110865 -4.13281,-1.578125 0.22441,-1.39642 -1.24145,-1.794119 -1.6836,-0.537109 -0.88865,2.52611 1.46937,4.738982 4.80274,4.507812 4.01488,-0.27842 5.4658,-4.725099 2.13281,-6.537109 -1.12998,-0.471453 -1.64214,-1.384941 -1.67774,-2.53711 4.32016,-1.856296 13.16797,-7.85456 13.16797,-9.257812 0,-1.248041 -1.19833,-0.696661 -5.94922,2.736328 -9.91829,7.166946 -12.66061,6.31297 -9.63476,-3.001953 1.3663,-4.206077 4.10162,-6.226345 7.78906,-5.753906 2.10017,0.269078 2.49978,0.126164 2.32617,-0.835938 -0.18171,-1.007033 -1.18753,-1.44805 -2.52734,-1.443359 z" />
  </g>
</svg>
