<?xml version="1.0" encoding="UTF-8" standalone="no"?>
<!-- Created with Inkscape (http://www.inkscape.org/) -->

<svg
   version="1.1"
   id="svg1"
   width="43.840622"
   height="36.062447"
   viewBox="0 0 43.84062 36.062446"
   xmlns="http://www.w3.org/2000/svg"
   xmlns:svg="http://www.w3.org/2000/svg">
  <defs
     id="defs1" />
  <g
     id="g1"
     transform="translate(-529.0789,-58.286542)">
    <path
       id="path371-1"
       style="fill:#000000;stroke-width:1.08815"
       d="m 557.62392,60.260779 c -3.3846,0.0064 -6.17931,0.153047 -6.46875,0.486328 -1.38369,-0.794244 -3.92425,1.479568 -8.36133,9.783203 -2.65916,4.976396 -6.16695,11.331473 -7.79492,14.123047 -1.62797,2.791574 -2.70505,5.394101 -2.39258,5.783203 1.03103,1.283882 2.90408,-0.698723 5.69141,-6.027344 2.5745,-4.921718 2.8858,-5.203125 5.80468,-5.203125 1.34946,0 3.70768,-0.129102 5.80665,-0.306641 -0.1375,4.241284 -0.18171,7.937815 -0.0371,9.210938 l 0.41406,3.652344 h 4.32226 c 7.33779,0 15.96875,-1.620467 15.96875,-2.998047 0,-0.93872 -0.53203,-1.086791 -2.47656,-0.695313 -13.50232,2.718334 -16.64776,1.806827 -16.66406,-4.826172 -0.0118,-4.806822 0.16143,-5.00082 4.98437,-5.601562 4.90024,-0.610375 4.39332,-2.286867 -0.60742,-2.009766 l -3.72656,0.207032 v -0.951172 c 0.35486,-2.845132 0.66529,-6.611195 0.49609,-9.576172 l 0.36328,-3.201172 4.89454,0.554687 c 5.77611,0.653236 12.73628,-0.14617 12.73632,-1.46289 2e-5,-0.569171 -7.29804,-0.952101 -12.95312,-0.941406 z m -7.00586,3.55664 c 0.038,-0.0037 0.0693,0.0049 0.0996,0.01758 -0.24318,2.781107 -0.48387,7.037035 -0.66406,11.28125 -0.0996,0.391172 -0.19174,0.653623 -0.26368,0.708985 -1.30373,1.003357 -7.44598,1.338751 -6.9375,0.347656 4.11312,-8.016865 6.90934,-12.272119 7.76563,-12.355469 z" />
  </g>
</svg>
