<?xml version="1.0" encoding="UTF-8" standalone="no"?>
<!-- Created with Inkscape (http://www.inkscape.org/) -->

<svg
   version="1.1"
   id="svg1"
   width="23.511301"
   height="47.199375"
   viewBox="0 0 23.5113 47.199374"
   xmlns="http://www.w3.org/2000/svg"
   xmlns:svg="http://www.w3.org/2000/svg">
  <defs
     id="defs1" />
  <g
     id="g1"
     transform="translate(-585.82415,-57.579438)">
    <path
       id="path385-9"
       style="fill:#000000;stroke-width:0.517574"
       d="m 598.67861,60.674841 c -1.97119,0.05303 -3.91053,0.479199 -5.33985,1.320313 -7.87333,4.633246 -7.20316,25.326405 0.94336,29.126953 0.83769,0.390803 1.8154,0.635471 2.8418,0.765625 -0.44682,1.040611 0.15275,2.570498 1.62695,3.373047 3.02932,1.64913 2.62925,1.931389 0.73047,3.537109 -2.36278,1.998142 -4.56308,1.110865 -4.13086,-1.578125 0.22441,-1.39642 -1.2434,-1.794119 -1.68555,-0.537109 -0.88865,2.52611 1.46937,4.738986 4.80274,4.507816 4.01488,-0.27842 5.4658,-4.725103 2.13281,-6.537113 -1.16918,-0.487818 -1.67494,-1.449067 -1.67773,-2.658203 3.40164,-0.01804 6.84027,-1.206357 7.50781,-3.070313 0.65783,-1.836801 -0.12515,-1.961949 -2.51563,-0.400391 -9.33969,6.101051 -17.79965,-7.366471 -12.88867,-20.517578 1.99699,-5.347747 10.50819,-7.317026 14.0293,-3.246093 2.34671,2.713148 3.6669,1.204222 1.4082,-1.609375 -1.22754,-1.529122 -4.04417,-2.399089 -6.93945,-2.476563 -0.28149,-0.0075 -0.56411,-0.0076 -0.8457,0 z" />
  </g>
</svg>
